<svg version="1.1" xmlns="http://www.w3.org/2000/svg"
    width="240" height="240" viewBox="0 0 240 240"
    preserveAspectRatio="xMidYMid meet">
    <g transform="translate(0,240) scale(0.1,-0.1)"
        fill="#ffffff" stroke="#ffffff" stroke-width="50">
        <path
            d="M747 1908 c-24 -24 -24 -25 -30 -328 -11 -480 -9 -1040 4 -1040 5 0
      8 -4 5 -9 -3 -5 4 -20 15 -35 l20 -26 168 0 c162 0 168 1 189 23 l22 23 
      0 540 c0 438 -3 549 -15 593 -16 60 -71 147 -119 188 -40 34 -139 79 -193 88
      -36 6 -46 3 -66 -17z m154 -54 c69 -31 140 -102 172 -172 22 -46 22 -56 25 -609 
      l3 -563 -173 0 -173 0 0 691 0 691 44 -6 c24 -3 70 -18 102 -32z" />
        <path
            d="M1287 1246 l-27 -25 0 -351 0 -351 26 -26 c23 -22 31 -25 73 -20 114 
      14 235 100 288 205 26 53 28 65 28 182 0 115 -2 130 -27 183 -48 102 -164 195 
      -264 212 -21 4 -46 9 -55 11 -9 2 -28 -7 -42 -20z m155 -53 c64 -28 133 -95 170 
      -164 21 -39 23 -57 23 -169 0 -137 -5 -155 -72 -237 -43 -54 -142 -104 -209 -106
      l-49 -2 -3 358 -2 359 42 -7 c24 -4 69 -18 100 -32z" />
    </g>
</svg>